# xmcd
#
# Track frame offsets:
#	150
#	20712
#	43183
#	63760
#	86141
#	111020
#	134294
#	154103
#	175587
#	196159
#	219113
#	242185
#	262765
#	285810
#
# Disc length: 4068 seconds
# Revision: 0
# Processed by: cddbd v1.5.2PL0 Copyright (c) Steve Scherf et al.
# Submitted via: dBpowerAMP V12.0
#
DISCID=b30fe20e
DTITLE=Ray Bradbury - Fahrenheit 451 CD4
DYEAR=2008
DGENRE=Hörbuch
TTITLE0=42 Das Sieb und der Sand
TTITLE1=43 Das Sieb und der Sand
TTITLE2=44 Das Sieb und der Sand
TTITLE3=45 Das Sieb und der Sand
TTITLE4=46 Das Sieb und der Sand
TTITLE5=47 Die Waberlohe
TTITLE6=48 Die Waberlohe 
TTITLE7=49 Die Waberlohe
TTITLE8=50 Die Waberlohe
TTITLE9=51 Die Waberlohe
TTITLE10=52 Die Waberlohe
TTITLE11=53 Die Waberlohe
TTITLE12=54 Die Waberlohe
TTITLE13=55 Die Waberlohe
EXTD=
EXTT0=
EXTT1=
EXTT2=
EXTT3=
EXTT4=
EXTT5=
EXTT6=
EXTT7=
EXTT8=
EXTT9=
EXTT10=
EXTT11=
EXTT12=
EXTT13=
PLAYORDER=
